<svg cache-id="13c0f653d131471d832538147d008594" id="eWRhPoJBiTI1" xmlns="http://www.w3.org/2000/svg" xmlns:xlink="http://www.w3.org/1999/xlink" viewBox="0 0 122.88 122.88" shape-rendering="geometricPrecision" text-rendering="geometricPrecision"><g><path d="M61.44,0c8.31,0,16.24,1.66,23.49,4.66C92.46,7.78,99.22,12.34,104.89,18s10.22,12.43,13.34,19.96c3,7.24,4.66,15.18,4.66,23.49s-1.66,16.24-4.66,23.49c-3.12,7.53-7.68,14.29-13.34,19.96-5.66,5.66-12.43,10.22-19.96,13.34-7.24,3-15.18,4.66-23.49,4.66s-16.24-1.66-23.49-4.66c-7.53-3.12-14.29-7.68-19.96-13.34C12.34,99.22,7.78,92.45,4.66,84.93C1.66,77.68,0,69.75,0,61.44s1.66-16.24,4.66-23.49C7.78,30.43,12.34,23.66,18,18s12.43-10.22,19.96-13.34C45.2,1.66,53.13,0,61.44,0v0ZM52.15,70.86h-9.84L40.9,75.49h-8.86l10.58-28.1h9.5l10.53,28.1h-9.09l-1.41-4.63v0Zm-1.84-6.08l-3.07-10.1-3.08,10.1h6.15v0ZM64.27,47.39h12.91c2.54,0,4.6.35,6.16,1.03c1.56.69,2.86,1.68,3.89,2.97c1.02,1.3,1.76,2.79,2.22,4.51.46,1.71.69,3.53.69,5.44c0,3-.34,5.33-1.03,6.99-.68,1.65-1.63,3.04-2.85,4.16s-2.52,1.86-3.91,2.24c-1.9.51-3.63.77-5.17.77h-12.91v-28.11v0Zm8.67,6.36v15.35h2.13c1.82,0,3.11-.2,3.89-.6.77-.41,1.37-1.11,1.81-2.11.44-1.01.65-2.63.65-4.88c0-2.98-.48-5.01-1.46-6.11-.97-1.1-2.59-1.65-4.85-1.65h-2.17v0Zm29.25-22.21L89.95,43.79L78.84,39.48l16-16c-4.3-3.8-9.25-6.86-14.65-9.02-5.78-2.31-12.11-3.57-18.74-3.57-6.84,0-13.36,1.36-19.31,3.82-6.18,2.56-11.74,6.32-16.41,10.98-4.66,4.66-8.42,10.23-10.98,16.41-2.46,5.94-3.82,12.46-3.82,19.31c0,6.62,1.27,12.93,3.57,18.71c2.16,5.42,5.23,10.38,9.02,14.68L35.73,82.59L47.9,85.85L31.58,102.17c3.99,2.93,8.43,5.29,13.18,6.95c5.22,1.83,10.83,2.82,16.68,2.82c6.84,0,13.36-1.36,19.31-3.82c6.18-2.56,11.74-6.32,16.41-10.98c4.66-4.66,8.42-10.23,10.98-16.41c2.46-5.94,3.82-12.46,3.82-19.31c0-5.87-.99-11.48-2.81-16.69-1.67-4.76-4.03-9.19-6.96-13.19v0Z" fill="#fff" stroke="#000"/></g></svg>
